<svg xmlns="http://www.w3.org/2000/svg" viewBox="0 0 750 124.16"><defs><style>.cls-1{fill:#fff;}.cls-2{fill:#f05323;}</style></defs><g id="Layer_2" data-name="Layer 2"><g id="Layer_1-2" data-name="Layer 1"><path class="cls-1" d="M153.68,1.56,110.09,123h25.53l8-23.1h48.28l8,23.1h25.7L182,1.56ZM150.21,80.4l17.54-50.7,17.54,50.7Z"/><polygon class="cls-1" points="314.48 84.92 259.43 1.56 235.12 1.56 235.12 122.95 259.43 122.95 259.43 39.77 314.48 122.95 338.8 122.95 338.8 1.56 314.48 1.56 314.48 84.92"/><path class="cls-1" d="M395.84,27a35.87,35.87,0,0,1,18.84-4.94,34.34,34.34,0,0,1,17.45,4.34,28.92,28.92,0,0,1,11.72,13h28a54.49,54.49,0,0,0-21.36-28.83Q435.17.18,414.85.17a62.51,62.51,0,0,0-31.34,7.91,57.69,57.69,0,0,0-22.06,22,63.55,63.55,0,0,0-8.07,32q0,17.88,8.07,32a57.9,57.9,0,0,0,22.06,22,62.5,62.5,0,0,0,31.34,7.9q20.49,0,35.69-10.33t21.27-28.92h-28a29.46,29.46,0,0,1-11.72,13.11,33.79,33.79,0,0,1-17.45,4.43,35.88,35.88,0,0,1-18.84-5A33.63,33.63,0,0,1,383,83.27a46.2,46.2,0,0,1-4.61-21.1Q378.38,50,383,41a33.78,33.78,0,0,1,12.85-14"/><path class="cls-1" d="M572.62,8A65.32,65.32,0,0,0,510,8a59.66,59.66,0,0,0-22.57,22.14A61.6,61.6,0,0,0,479.1,62a61.87,61.87,0,0,0,8.34,32A59.52,59.52,0,0,0,510,116.17a65.15,65.15,0,0,0,62.52,0A59,59,0,0,0,595,94a62.5,62.5,0,0,0,8.25-32A62.22,62.22,0,0,0,595,30.13,59.22,59.22,0,0,0,572.62,8m1,75.37a34,34,0,0,1-13,14.15,37.06,37.06,0,0,1-19.28,4.95,37.48,37.48,0,0,1-19.36-4.95A33.71,33.71,0,0,1,508.8,83.36,46.41,46.41,0,0,1,504.11,62q0-12.16,4.69-21.28a33.33,33.33,0,0,1,13.11-14,38,38,0,0,1,19.36-4.86,37.6,37.6,0,0,1,19.28,4.86,33.63,33.63,0,0,1,13,14q4.7,9.12,4.69,21.28a46.41,46.41,0,0,1-4.69,21.36"/><polygon class="cls-1" points="722.56 1.74 684.01 91.86 645.46 1.74 617.85 1.74 617.85 122.95 642.16 122.95 642.16 44.11 674.81 122.95 693.22 122.95 725.69 44.11 725.69 122.95 750 122.95 750 1.74 722.56 1.74"/><rect class="cls-1" y="1.74" width="24.3" height="47.47"/><rect class="cls-1" y="73.53" width="24.3" height="49.42"/><rect class="cls-1" x="76.25" y="1.74" width="24.3" height="47.47"/><rect class="cls-2" x="24.3" y="49.22" width="76.25" height="24.3"/><rect class="cls-1" x="76.25" y="73.53" width="24.3" height="49.42"/></g></g></svg>