<?xml version="1.0" encoding="UTF-8"?><svg id="_레이어_1" xmlns="http://www.w3.org/2000/svg" viewBox="0 0 352 34"><defs><style>.cls-1{fill:#f89b6c;}.cls-2{fill:#f37321;}.cls-3{fill:#fbb584;}</style></defs><path class="cls-3" d="m13.8458,17.4284c-.4858-4.4382,4.1503-7.9648,10.3457-7.9168,6.1955.048,11.6232,3.6705,12.109,8.0847s-4.1203,7.9887-10.3457,7.9167c-6.2254-.0719-11.6232-3.6645-12.109-8.0846Zm23.6123,1.3734c-.5638-5.4818-6.8012-9.9679-13.9383-10.0099-7.1371-.042-12.4749,4.3182-11.9111,9.8.5638,5.4817,6.7772,9.9919,13.9383,10.0278,7.161.036,12.4748-4.3362,11.9111-9.8179Z"/><path class="cls-1" d="m26.6803,28.7277c-3.5146,3.6825-9.1583,3.9823-12.5948.6837-3.4366-3.2987-3.3827-8.9483.1319-12.5948,3.5146-3.6465,9.1642-3.9764,12.5948-.6837,3.4306,3.2926,3.3886,8.9483-.1319,12.5948Zm-13.0267-12.0551c-4.0843,4.2703-4.1503,10.8376-.1499,14.67,4.0003,3.8324,10.5676,3.4786,14.652-.7917,4.0843-4.2702,4.1562-10.8315.1499-14.6639-4.0064-3.8325-10.5617-3.4966-14.652.7856Z"/><path class="cls-2" d="m14.0316,2.9263c7.311-2.7349,14.538.03,16.1454,6.1895,1.6073,6.1594-2.9988,13.3805-10.3278,16.1153s-14.544,0-16.1514-6.1894C2.0905,12.8522,6.6966,5.6672,14.0316,2.9263Zm-6.7952,2.357C-.3505,11.2809-2.2817,19.9953,2.9242,24.7153c5.2059,4.7201,15.5936,3.6945,23.1564-2.309,7.5629-6.0036,9.5241-14.706,4.3003-19.438C25.157-1.7638,14.7873-.7262,7.2244,5.2833"/><path d="m66.6299,14.5615c-.8095-.6967-1.8613-1.0459-2.9268-.9716h-6.1234v1.8172h6.1774c1.1995,0,1.7993.5458,1.7993,1.6314v.054h-5.5417c-.4295-.0233-.8592.0396-1.2639.1848-.4048.1452-.7765.3699-1.0932.6608-.2937.2768-.5249.6131-.678.9866-.1531.3734-.2245.7752-.2096,1.1785v.7257c-.0143.3948.0553.7881.2042,1.1542.1487.366.3736.6962.6594.9689.3183.288.6904.5099,1.095.653.4046.1431.8336.2045,1.2621.1807l4.3242.012c.8608.0534,1.7121-.2041,2.399-.7256.3129-.2681.5603-.6042.7235-.9826.1631-.3783.2378-.7889.2181-1.2005v-3.5985c.0339-.5017-.0401-1.0049-.2171-1.4756-.1769-.4707-.4526-.8981-.8085-1.2533Zm-1.0975,6.0334c0,.9116-.5578,1.3615-1.6673,1.3615h-3.3646c-1.0856,0-1.6254-.4498-1.6254-1.3615v-.3359c0-.9176.5398-1.3794,1.6254-1.3794h3.3646v.018c1.1095,0,1.6673.4618,1.6673,1.3614v.3359Z"/><path d="m122.0234,14.5615c-.807-.6964-1.857-1.0457-2.921-.9716h-6.129v1.8173h6.171c1.2,0,1.799.5458,1.799,1.6313v.054h-5.559c-.43-.0222-.859.0411-1.264.1863-.404.1452-.776.3693-1.093.6594-.292.278-.522.6147-.674.9879-.151.3732-.223.7744-.208,1.1772v.7077c-.013.399.058.7963.21,1.1655.152.3691.381.7017.672.9756.318.2871.691.5085,1.095.6515.405.1431.833.205,1.262.1821h4.36c.858.0586,1.71-.1925,2.399-.7077.306-.2731.546-.6118.703-.9909.157-.379.226-.7886.202-1.1982v-3.5985c.034-.5017-.04-1.0048-.217-1.4756-.176-.4707-.452-.898-.808-1.2533Zm-1.098,6.0336c0,.9116-.551,1.3614-1.661,1.3614h-3.371c-1.079,0-1.625-.4498-1.625-1.3614v-.3359c0-.9176.546-1.3794,1.625-1.3794h3.371v.0179c1.11,0,1.679.4619,1.661,1.3615v.3359Z"/><path d="m154.1194,14.7103c-.39-.3976-.863-.7043-1.3849-.8979-.522-.1937-1.08-.2697-1.635-.2224h-3.131c-.556-.0455-1.116.0331-1.638.2301-.5229.1971-.995.5076-1.383.9092-.388.4017-.682.8844-.86,1.4134-.179.529-.238,1.091-.173,1.6456v1.8532c-.056.5504.009,1.1064.191,1.6286.183.5223.478.998.865,1.3934.387.3955.856.701,1.374.895.518.1939,1.073.2715,1.624.2273h3.131v.006c.553.048,1.11-.0269,1.631-.2191.522-.1923.994-.4973,1.383-.8932.39-.3959.687-.8729.871-1.3971.184-.5241.25-1.0823.193-1.6349v-1.8952c.059-.5537-.006-1.1135-.189-1.6394-.183-.5258-.48-1.0048-.869-1.4025Zm-1.0829,4.8652c.0439.6049-.112,1.2077-.444,1.7153-.201.2402-.457.4288-.746.5498-.289.1211-.603.1711-.915.1459h-2.825c-.314.0234-.628-.0299-.917-.1553-.288-.1254-.541-.3191-.738-.5644-.318-.5133-.467-1.1131-.426-1.7153v-1.6673c-.04-.6079.109-1.2132.426-1.7333.195-.243.447-.4345.734-.5578.286-.1234.598-.1748.909-.1499h2.837c.314-.0264.629.0243.918.1477.29.1233.545.3156.743.56.332.5142.488,1.1226.444,1.7333v1.6913Z"/><path d="m190.7374,13.6079h-4.726c-.549-.0211-1.097.0666-1.611.2581-.515.1915-.987.4829-1.388.8574-.379.4104-.671.8939-.856,1.421-.186.527-.262,1.0863-.224,1.6438v1.8532c-.056.5509.009,1.1075.192,1.6302.183.5227.479.9987.866,1.3943.388.3956.858.7009,1.377.8945.519.1935,1.074.2704,1.626.2253h2.776c.551.0423,1.104-.0358,1.621-.229.517-.1932.985-.4967,1.373-.8895.387-.3928.685-.8654.871-1.3849.187-.5194.257-1.0733.208-1.6229l.018-9.4581h-2.123v3.4066Zm-.018,5.9435c.045.6103-.104,1.2192-.426,1.7393-.203.2384-.459.4256-.748.5465-.288.1208-.601.172-.913.1492h-2.501c-.307.0166-.613-.0401-.894-.1652-.28-.1251-.527-.3152-.72-.5544-.32-.5121-.469-1.1129-.426-1.7153v-1.6673c-.043-.6081.106-1.2144.426-1.7333.193-.2386.44-.4274.721-.5506.28-.1231.587-.177.893-.1571h4.588v4.1083Z"/><path d="m204.4774,14.5615c-.807-.6964-1.857-1.0457-2.921-.9716h-6.129v1.8173h6.153c1.2,0,1.799.5458,1.799,1.6313v.054h-5.541c-.4301-.0222-.859.0411-1.264.1863-.404.1452-.776.3693-1.093.6594-.293.2777-.5229.6142-.676.9874-.153.3732-.225.7745-.212,1.1777v.7077c-.012.3994.06.7968.2141,1.166.153.3691.382.7015.674.9751.3181.2871.691.5085,1.095.6515.405.1431.833.205,1.262.1821l4.33.024c.861.0534,1.712-.2041,2.399-.7257.312-.269.558-.6052.722-.9833.163-.3782.238-.7884.219-1.1998v-3.5985c.035-.5041-.039-1.0098-.217-1.4828-.178-.4729-.456-.902-.814-1.2581Zm-1.098,6.0336c0,.9116-.551,1.3614-1.661,1.3614h-3.371c-1.085,0-1.625-.4498-1.625-1.3614v-.3359c0-.9176.54-1.3794,1.625-1.3794h3.371v.0179c1.11,0,1.661.4619,1.661,1.3615v.3359Z"/><path d="m231.4784,14.7141c-.392-.4022-.869-.7118-1.396-.9063-.528-.1944-1.091-.2689-1.651-.2179h-3.131c-.556-.0442-1.116.0352-1.638.2326-.522.1973-.994.5078-1.382.909-.388.4013-.683.8834-.862,1.4119-.18.5284-.241,1.0901-.178,1.6448v1.8532c-.055.5507.011,1.1068.194,1.629.183.5223.479.9978.866,1.3932.388.3953.857.7007,1.376.8946.518.1939,1.073.2716,1.624.2275h3.155c.549.0461,1.101-.0286,1.618-.2189.518-.1902.987-.4916,1.375-.8826s.686-.8623.872-1.3807c.187-.5184.257-1.0714.207-1.6201v-1.8952c.065-.5582.004-1.1237-.177-1.6555-.181-.5318-.479-1.0165-.872-1.4186Zm-1.074,4.8614c.042.6047-.114,1.2066-.444,1.7153-.201.2402-.457.4288-.746.5498-.289.1211-.603.1711-.915.1459h-2.837c-.311.0214-.624-.0329-.91-.1582s-.538-.318-.733-.5615c-.32-.5122-.469-1.1129-.426-1.7153v-1.6673c-.043-.6081.106-1.2145.426-1.7333.195-.243.447-.4345.734-.5578.286-.1234.598-.1748.909-.1499h2.837c.314-.0264.629.0243.918.1477.29.1233.545.3156.743.56.33.5154.485,1.1229.444,1.7333v1.6913Z"/><path d="m262.1984,14.7192c-.39-.4022-.8651-.7123-1.39-.9077-.525-.1954-1.087-.2711-1.646-.2216h-3.13c-.557-.0455-1.117.0331-1.639.2301-.522.197-.995.5075-1.382.9092-.388.4016-.682.8844-.861,1.4133-.179.529-.238,1.0911-.173,1.6457v1.8532c-.056.5503.009,1.1063.192,1.6286.182.5222.478.9979.865,1.3934.386.3955.856.701,1.374.8949.518.194,1.072.2716,1.624.2274h3.13c.55.0471,1.103-.0269,1.62-.2168.518-.1899.987-.4911,1.375-.8824.389-.3912.687-.8629.873-1.382.186-.5189.256-1.0723.205-1.6212v-1.8952c.066-.5565.008-1.1207-.172-1.6516-.179-.5309-.475-1.0152-.865-1.4174Zm-1.068,4.8322c.0439.605-.112,1.2077-.444,1.7153-.201.2473-.458.442-.751.5674-.293.1254-.611.1777-.929.1523h-2.836c-.309.0185-.618-.0372-.901-.1624-.282-.1252-.531-.3163-.725-.5573-.317-.5133-.466-1.1131-.426-1.7153v-1.6673c-.04-.6078.109-1.2132.426-1.7333.196-.2429.448-.4344.7339-.5578.286-.1234.599-.1748.91-.1499h2.836c.314-.0263.629.0244.919.1477.289.1234.544.3156.743.56.332.5143.488,1.1227.444,1.7333v1.6673Z"/><path d="m52.7635,10.2373h2.1231v13.5484h-2.1231v-7.137h-8.0427v7.137h-2.1232v-13.5484h2.1232v4.5521h8.0427v-4.5521Zm26.3171,4.5042c-.414-.3942-.9042-.6996-1.4405-.8976-.5363-.198-1.1074-.2845-1.6782-.2539h-2.0931c-.5681-.0289-1.136.0596-1.6685.2597-.5324.2002-1.0179.5078-1.4263.9038-.3932.431-.6963.9365-.891,1.4865-.1947.5501-.2772,1.1337-.2425,1.7162v5.8296h2.1231v-5.7217c-.0535-.6536.1088-1.3066.4618-1.8592.2168-.2542.489-.4551.7958-.5872.3068-.1321.6399-.1918.9734-.1745h1.7993c.3385-.022.6774.0354.9898.1677.3124.1322.5896.3356.8094.594.3745.544.5484,1.2012.4918,1.8592v5.7217h2.1231v-5.8416c.0342-.582-.048-1.1649-.2416-1.7148-.1936-.5499-.4947-1.0557-.8859-1.4879Zm16.7814,5.0139c.0502.5876-.1281,1.1719-.4978,1.6313-.185.1979-.4103.3539-.6606.4573-.2504.1035-.52.1521-.7908.1425h-.9176c-.2687.0078-.5361-.0416-.7842-.145-.2482-.1034-.4715-.2584-.6552-.4548-.3699-.4642-.5499-1.0515-.5038-1.6433v-6.1534h-2.0931v6.1534c.0519.5868-.1243,1.171-.4918,1.6313-.1862.1981-.4125.3541-.6639.4575-.2513.1034-.5219.152-.7935.1423h-.9177c-.2678.0078-.5342-.0417-.7814-.1451-.2472-.1035-.4695-.2585-.652-.4547-.3584-.4645-.5296-1.0466-.4798-1.6313v-6.1534h-2.1051v6.1234c-.0682,1.077.2868,2.1379.9896,2.9568.3635.3757.803.6696,1.2891.8619.4861.1923,1.0076.2788,1.5297.2537h1.3075c.5412.0078,1.0769-.1102,1.565-.3443.488-.2341.9151-.5782,1.2478-1.0052.3287.424.7509.7663,1.2336,1.0004.4826.2341,1.0129.3535,1.5493.3491h1.2955c.5276.0327,1.0561-.0483,1.5497-.2377s.9407-.4826,1.3111-.8599c.3586-.4001.634-.8676.81-1.3753.1761-.5076.2495-1.0452.2156-1.5815v-6.1414h-2.1052v6.1654Zm13.3684-4.9839c-.414-.3942-.904-.6996-1.44-.8976-.537-.198-1.108-.2844-1.678-.2539h-2.088c-.746-.0192-1.481.19-2.105.5997v-4.0183h-2.1289v13.5844h2.1289v-5.7217c-.053-.6535.109-1.3066.462-1.8593.216-.2549.488-.4563.795-.5884.307-.1322.6411-.1915.974-.1733h1.794c.338-.0229.677.0341.99.1664.313.1323.59.3362.809.5953.376.5432.552,1.2005.498,1.8593v5.7217h2.123v-5.8116c.034-.5825-.048-1.166-.243-1.7161-.194-.5501-.497-1.0556-.891-1.4866Zm23.49-4.3236c-.545.1823-1.048.4716-1.479.851-.696.6957-1.044,1.7933-1.044,3.2927v9.1942h2.1411v-5.8716h8.8589v-1.7993h-8.8589l.006-1.4154c-.051-.6637.091-1.3282.408-1.9132.23-.2538.517-.4501.837-.573.319-.1229.664-.1691,1.005-.1347h7.616v-1.8413h-7.796c-.573-.0433-1.149.0283-1.694.2106Zm32.809,8.8998c.055.6579-.118,1.3148-.492,1.8592-.224.2526-.502.4509-.814.5797-.311.1289-.649.185-.985.164h-1.799c-.337.021-.674-.0351-.986-.164-.312-.1288-.59-.3271-.814-.5797-.353-.5526-.515-1.2056-.462-1.8592v-5.7576h-2.123v5.8715c-.035.578.048,1.1571.242,1.7024.195.5452.499,1.0454.892,1.4703.409.3938.895.6992,1.428.8973.532.1981,1.099.2846,1.667.2543l2.123.0179c.571.0306,1.142-.0558,1.678-.2539.536-.198,1.026-.5034,1.44-.8976.395-.4266.698-.929.892-1.4764.1931-.5475.274-1.1287.236-1.7083v-5.8775h-2.123v5.7576Zm13.429-4.6061c-.415-.3942-.905-.6996-1.441-.8976s-1.107-.2845-1.678-.2539h-2.087c-.568-.0281-1.136.0606-1.668.2608-.533.2001-1.018.5073-1.427.9027-.393.431-.696.9365-.891,1.4865-.195.5501-.277,1.1337-.243,1.7162v5.8296h2.118v-5.7217c-.054-.6536.108-1.3066.461-1.8592.216-.2549.489-.4563.796-.5885.3069-.1321.64-.1914.974-.1732h1.799c.338-.023.678.034.9901.1663.313.1323.59.3363.809.5954.377.5432.553,1.2005.498,1.8592v5.7217h2.123v-5.8416c.035-.5825-.048-1.1661-.242-1.7162-.195-.55-.498-1.0555-.891-1.4865Zm33.328-3.4427h-2.1411v2.2911h-3.185v1.7992h3.185v8.3966h2.1411v-8.3966h3.191v-1.7992h-3.191v-2.2911Zm4.767,12.487h2.16v-10.1958h-2.16v10.1958Zm2.064-13.1886c-.278-.2394-.635-.3676-1.002-.3599-.356-.0086-.702.1202-.966.3599-.129.1206-.232.2675-.3.4309-.068.1635-.101.3397-.095.5167-.008.1764.024.3523.092.515.069.1628.172.3085.303.4266.266.2354.611.3617.966.3539.366.0071.722-.1186,1.002-.3539.134-.1164.241-.2613.313-.4242.071-.1628.106-.3396.1-.5174.006-.1788-.028-.3567-.099-.5207-.072-.164-.179-.3098-.314-.4269Zm24.728,4.1443c-.414-.3942-.904-.6996-1.441-.8976-.536-.198-1.107-.2845-1.678-.2539h-2.087c-.57-.0298-1.14.0581-1.675.2583-.534.2003-1.022.5083-1.432.9052-.392.4315-.694.9372-.888,1.4872-.193.55-.275,1.1334-.239,1.7155v5.8296h2.123v-5.7217c-.054-.6536.108-1.3066.462-1.8592.216-.2542.489-.4551.795-.5872.307-.1321.64-.1918.974-.1745h1.799c.339-.023.678.034.991.1663.312.1323.589.3363.808.5954.377.5432.553,1.2005.498,1.8592v5.7217h2.123v-5.8416c.035-.5825-.048-1.1661-.242-1.7162-.195-.55-.498-1.0555-.891-1.4865Zm22.281-3.6286c-.342.2968-.613.6662-.794,1.0813-.181.4151-.266.8654-.25,1.3178v10.2737h2.141v-8.2946h3.881v-1.7992h-3.881c.06-1.0796.708-1.6134,2.027-1.6253h1.86v-1.8413h-1.986c-1.075-.0857-2.143.2306-2.998.8876Zm15.032-.6203c-.653.2311-1.248.6006-1.744,1.0832-.496.4826-.882,1.0668-1.131,1.7126-.25.6459-.356,1.338-.312,2.0288v3.4186c-.04.6884.07,1.3772.321,2.0193.252.6422.638,1.2227,1.134,1.7019.496.4792,1.089.846,1.739,1.0753.651.2293,1.343.3157,2.029.2534h7.263v-1.8232h-7.197c-.448.019-.895-.0603-1.309-.2322-.415-.172-.787-.4326-1.09-.7634-.54-.6489-.814-1.4782-.767-2.3211v-3.2386c-.047-.8484.227-1.6832.767-2.3391.305-.3287.677-.5875,1.091-.7584.414-.1708.861-.2497,1.308-.2312h7.197v-1.8412h-7.263c-.689-.0628-1.384.0243-2.036.2553Zm19.705,8.855c.056.6579-.118,1.3148-.491,1.8592-.224.2526-.502.4509-.814.5797-.312.1289-.649.185-.986.164h-1.799c-.337.021-.674-.0351-.986-.164-.311-.1288-.59-.3271-.813-.5797-.353-.5526-.5161-1.2056-.462-1.8592v-5.7576h-2.123v5.8715c-.035.578.047,1.1571.242,1.7024.195.5452.498,1.0454.891,1.4703.41.3938.896.6992,1.428.8973.532.1981,1.1.2846,1.6671.2543h2.093c.576.0354,1.152-.048,1.694-.2451.542-.1971,1.037-.5036,1.455-.9005.3911-.426.6931-.9264.887-1.4715.193-.5452.275-1.1237.24-1.7012v-5.8775h-2.123v5.7576Zm4.168,4.4381h2.159v-13.5844h-2.159v13.5844Zm9.033-12.4869h-2.141v2.2911h-3.191v1.7992h3.191v8.3966h2.141v-8.3966h3.185v-1.7992h-3.185v-2.2911Zm13.081,8.0488c.055.6579-.119,1.3148-.492,1.8592-.224.2526-.502.4509-.814.5797-.312.1289-.649.185-.986.164h-1.799c-.336.021-.674-.0351-.985-.164-.312-.1288-.59-.3271-.814-.5797-.353-.5526-.515-1.2056-.462-1.8592v-5.7576h-2.123v5.8715c-.035.578.047,1.1571.242,1.7024.195.5452.498,1.0454.892,1.4703.409.3938.895.6992,1.427.8973.533.1981,1.1.2846,1.667.2543l2.123.006c.571.0305,1.142-.0559,1.679-.254.536-.198,1.026-.5034,1.44-.8976.393-.4249.697-.9251.892-1.4703.194-.5453.277-1.1245.242-1.7025v-5.8775h-2.129v5.7576Zm4.911-4.9301c-.323.3004-.577.6684-.741,1.0779-.165.4095-.238.8504-.212,1.2911v6.9992h2.141v-6.7413c0-1.0735.582-1.6133,1.751-1.6133h3.79v-1.8412h-3.928c-1.004-.087-2.005.2086-2.801.8276Z"/><path d="m350.9374,15.4166c-.147-.3726-.3719-.7091-.66-.987-.322-.2963-.7-.5247-1.113-.671-.412-.1464-.85-.2078-1.286-.1807h-4.372c-.437-.0282-.875.0328-1.287.1792-.413.1464-.791.3752-1.112.6724-.295.2751-.526.6104-.679.9828-.154.3726-.225.7737-.209,1.1762v3.4966c-.034.497.04.9955.214,1.462.175.4665.448.8902.8,1.2429.812.6864,1.859,1.0304,2.92.9596h6.496v-1.7993h-6.502c-1.199,0-1.799-.5338-1.799-1.6073v-.072h5.524c.428.0228.8571-.039,1.261-.1821.405-.143.777-.3645,1.096-.6516.295-.2707.529-.6023.684-.9719.156-.3696.229-.7685.215-1.1692v-.7077c.021-.3999-.044-.7996-.191-1.1721Zm-1.9319,1.6879c0,.9056-.551,1.3614-1.649,1.3614h-3.383v.024c-1.085,0-1.625-.4557-1.625-1.3854v-.3418c0-.9177.54-1.3795,1.625-1.3795h3.383c1.098,0,1.649.4618,1.649,1.3795v.3418Z"/></svg>